<svg width="20" height="20" viewBox="0 0 20 20" fill="none" xmlns="http://www.w3.org/2000/svg">
<path d="M0 2V16L4.8 12.4C5.14582 12.1396 5.56713 11.9992 6 12H14C15.1046 12 16 11.1046 16 10V2C16 0.89543 15.1046 0 14 0H2C0.89543 0 0 0.89543 0 2ZM2 12V2H14V10H5.334C4.90107 9.99884 4.47964 10.1393 4.134 10.4L2 12Z" fill="#FB3668"/>
<path d="M20 20V7C20 5.89543 19.1046 5 18 5V16L15.866 14.4C15.5204 14.1393 15.0989 13.9988 14.666 14H5C5 15.1046 5.89543 16 7 16H14C14.4329 15.9992 14.8542 16.1396 15.2 16.4L20 20Z" fill="#FB3668"/>
</svg>
