<svg width="41" height="37" viewBox="0 0 41 37" fill="none" xmlns="http://www.w3.org/2000/svg">
<path d="M14.625 0.875C9.21723 0.875 4.83335 5.25888 4.83335 10.6667C4.83335 16.0745 9.21723 20.4583 14.625 20.4583C20.0328 20.4583 24.4167 16.0745 24.4167 10.6667C24.4167 5.25888 20.0328 0.875 14.625 0.875ZM8.75002 10.6667C8.75002 7.42199 11.3803 4.79167 14.625 4.79167C17.8697 4.79167 20.5 7.42199 20.5 10.6667C20.5 13.9113 17.8697 16.5417 14.625 16.5417C11.3803 16.5417 8.75002 13.9113 8.75002 10.6667Z" fill="#FB3668"/>
<path d="M30.1123 11.0941C29.5614 10.8132 28.9518 10.6668 28.3334 10.6668V6.75012C29.5702 6.75012 30.7895 7.0429 31.8914 7.60471C32.0128 7.66659 32.1324 7.73154 32.25 7.79947C33.2006 8.34827 34.0266 9.09156 34.6731 9.98234C35.3996 10.9834 35.8787 12.1422 36.0712 13.364C36.2637 14.5858 36.1642 15.8358 35.7808 17.0118C35.3973 18.1877 34.7408 19.2561 33.8651 20.1296C32.9893 21.003 31.9192 21.6567 30.7423 22.0371C29.695 22.3755 28.5896 22.489 27.4982 22.372C27.3631 22.3575 27.2283 22.3395 27.0938 22.318C25.8733 22.1224 24.7165 21.6407 23.7178 20.9125L23.7158 20.911L26.0246 17.7472C26.5241 18.1117 27.103 18.3527 27.7136 18.4505C28.3242 18.5484 28.9493 18.5003 29.5378 18.3101C30.1262 18.1199 30.6613 17.7931 31.0991 17.3564C31.537 16.9197 31.8652 16.3855 32.0569 15.7975C32.2487 15.2096 32.2984 14.5846 32.2022 13.9737C32.1059 13.3628 31.8664 12.7834 31.5031 12.2829C31.1399 11.7824 30.6633 11.375 30.1123 11.0941Z" fill="#FB3668"/>
<path d="M36.163 36.125C36.163 35.0968 35.9604 34.0787 35.567 33.1287C35.1735 32.1788 34.5968 31.3157 33.8697 30.5886C33.1427 29.8616 32.2796 29.2849 31.3296 28.8914C30.3797 28.4979 29.3616 28.2954 28.3334 28.2954V24.375C29.6691 24.375 30.9935 24.6028 32.25 25.047C32.445 25.1159 32.6384 25.1901 32.8299 25.2694C34.2555 25.8599 35.5508 26.7254 36.6419 27.8165C37.7329 28.9076 38.5984 30.2029 39.1889 31.6285C39.2683 31.82 39.3424 32.0133 39.4114 32.2083C39.8556 33.4648 40.0834 34.7893 40.0834 36.125H36.163Z" fill="#FB3668"/>
<path d="M28.3334 36.125H24.4167C24.4167 30.7172 20.0328 26.3333 14.625 26.3333C9.21723 26.3333 4.83335 30.7172 4.83335 36.125H0.916687C0.916687 28.5541 7.05412 22.4167 14.625 22.4167C22.1959 22.4167 28.3334 28.5541 28.3334 36.125Z" fill="#FB3668"/>
</svg>
