<svg width="14" height="19" viewBox="0 0 14 19" fill="none" xmlns="http://www.w3.org/2000/svg">
<path d="M7 19C5.73693 17.9226 4.56619 16.7415 3.5 15.469C1.9 13.558 8.83662e-07 10.712 8.83662e-07 8C-0.00141728 5.16755 1.70425 2.61339 4.32107 1.5294C6.93789 0.445409 9.95007 1.04524 11.952 3.049C13.2685 4.35961 14.0059 6.14239 14 8C14 10.712 12.1 13.558 10.5 15.469C9.43382 16.7415 8.26307 17.9226 7 19ZM7 3C4.23995 3.00331 2.00331 5.23995 2 8C2 9.166 2.527 11.185 5.035 14.186C5.65314 14.9241 6.30902 15.6297 7 16.3C7.69105 15.6305 8.34724 14.9259 8.966 14.189C11.473 11.184 12 9.165 12 8C11.9967 5.23995 9.76006 3.00331 7 3ZM7 11C5.34315 11 4 9.65686 4 8C4 6.34315 5.34315 5 7 5C8.65686 5 10 6.34315 10 8C10 8.79565 9.68393 9.55872 9.12132 10.1213C8.55871 10.6839 7.79565 11 7 11Z" fill="#5842F4"/>
</svg>
